<svg xmlns="http://www.w3.org/2000/svg" width="100px" height="100px" viewBox="0 0 70.48 69.09">
    <defs>
        <style>.cls-1{fill:#d0e1f3;}.cls-2,.cls-3{fill:#fff;}.cls-3{opacity:0.6;}</style>
    </defs>
    <g>
        <g>
            <path class="cls-2"
                  d="M24.6,21.31a.44.44,0,0,0,.46-.41V19.68a.44.44,0,0,0-.46-.41H21.43a.43.43,0,0,0-.45.41V20.9a.43.43,0,0,0,.45.41Z"/>
            <path class="cls-2"
                  d="M36.26,44.73a9.17,9.17,0,1,0-9.17-9.17A9.17,9.17,0,0,0,36.26,44.73Zm0-16.29a7.13,7.13,0,1,1-7.13,7.12A7.13,7.13,0,0,1,36.26,28.44Z"/>
            <path class="cls-2"
                  d="M12.84,26.4V46.77c0,4.07,4.07,4.07,4.07,4.07H53.57s4.07,0,4.07-4.07V26.4c0-4.07-4.07-4.07-4.07-4.07H45.83l-2.16-3.61a1.08,1.08,0,0,0-.83-.47H29.67a1.08,1.08,0,0,0-.82.47l-2.17,3.61H16.91S12.84,22.33,12.84,26.4Zm15.22-2,2.27-4.07H42l2.58,4.07h9a2,2,0,0,1,2.06,2.08V46.73a2,2,0,0,1-2.06,2.07H16.93a2,2,0,0,1-2.06-2.07V26.44a2,2,0,0,1,2.06-2.08Z"/>
            <path class="cls-3"
                  d="M28.31,24.62l2.27-4.07H42.24l2.58,4.07h9a2,2,0,0,1,2.06,2.08V47a2,2,0,0,1-2.06,2.07H17.18A2,2,0,0,1,15.12,47V26.7a2,2,0,0,1,2.06-2.08Z"/>
        </g>
    </g>
</svg>